Genre:Horror | Thriller
Language: English
IMDB:http://www.imdb.com/title/tt1320244/
Source:Source:DvDScr Rus/Audio:TWiZTED

General
Complete name :The Last Exorcism 2010 Scr Xvid Feel-Free
Format : AVI
Format/Info : Audio Video Interleave
File size : 576 MiB
Duration : 1h 23mn
Overall bit rate : 964 Kbps
Video #0
Codec ID : XVID
Codec ID/Hint : XviD
Duration : 1h 23mn
Bit rate : 829 Kbps
Width : 652 pixels
Height : 352 pixels
Display aspect ratio : 1.852
Frame rate : 23.976 fps
Resolution : 24 bits
Colorimetry : 4:2:0
Scan type : Progressive
Bits/(Pixel*Frame) : 0.151
Stream size : 496 MiB (86%)
Writing library : XviD 1.2.1 (UTC 2008-12-04)
Audio #1
ID : 1
Format : MPEG Audio
Format version : Version 1
Format profile : Layer 3
Codec ID : 55
Codec ID/Hint : MP3
Duration : 1h 23mn
Bit rate mode : Variable
Bit rate : 123 Kbps
Nominal bit rate : 128 Kbps
Channel(s) : 2 channels
Sampling rate : 48.0 KHz
Resolution : 16 bits
Stream size : 73.3 MiB (13%)
Alignment : Aligned on interleaves
Interleave, duration : 24 ms (0.58 video frame)
Interleave, preload duration : 514 ms
Plot
A troubled evangelical minister agrees to let his last exorcism be filmed by a documentary crew